<svg width="24" height="24" viewBox="0 0 24 24" fill="none" xmlns="http://www.w3.org/2000/svg" role="img" aria-labelledby="title">
  <title id="title">Itch.io Logo</title>
  <path d="M4.75 3.2h14.5l1.05 5.1c.2.98-.53 1.9-1.53 1.9-.78 0-1.43-.58-1.54-1.35-.11.77-.76 1.35-1.54 1.35-.78 0-1.43-.58-1.54-1.35-.11.77-.76 1.35-1.54 1.35h-1.22c-.78 0-1.43-.58-1.54-1.35-.11.77-.76 1.35-1.54 1.35-.78 0-1.43-.58-1.54-1.35-.11.77-.76 1.35-1.54 1.35-1 0-1.73-.92-1.53-1.9l1.05-5.1Z" fill="#FA5C5C"/>
  <path d="M5.35 11.75c.72 0 1.38-.26 1.9-.7.52.44 1.18.7 1.9.7.72 0 1.38-.26 1.9-.7.52.44 1.18.7 1.9.7.72 0 1.38-.26 1.9-.7.52.44 1.18.7 1.9.7.63 0 1.22-.2 1.7-.55l-.6 7.05c-.12 1.44-1.33 2.55-2.78 2.55H8.93c-1.45 0-2.66-1.11-2.78-2.55l-.6-7.05c.48.35 1.07.55 1.8.55Z" fill="#FA5C5C"/>
  <path d="M9.15 14.02h1.75v1.75H9.15v-1.75Zm3.95 0h1.75v1.75H13.1v-1.75Zm-3.55 3.06h4.9c-.5.76-1.31 1.18-2.45 1.18s-1.95-.42-2.45-1.18Z" fill="#FFFFFF"/>
</svg>
